<?xml version="1.0" encoding="utf-8"?>
<!-- Generator: Adobe Illustrator 12.0.0, SVG Export Plug-In . SVG Version: 6.00 Build 51448)  -->
<!DOCTYPE svg PUBLIC "-//W3C//DTD SVG 1.1//EN" "http://www.w3.org/Graphics/SVG/1.1/DTD/svg11.dtd" [
	<!ENTITY ns_svg "http://www.w3.org/2000/svg">
	<!ENTITY ns_xlink "http://www.w3.org/1999/xlink">
]>
<svg  version="1.1" id="Layer_1" xmlns="&ns_svg;" xmlns:xlink="&ns_xlink;" width="24" height="24" viewBox="0 0 24 24"
	 overflow="visible" enable-background="new 0 0 24 24" xml:space="preserve">
<path fill="#105997" d="M18,11c-3.313,0-6,2.688-6,6s2.688,6,6,6s6-2.688,6-6S21.313,11,18,11z M15.111,18.857
	c0.281-0.2,0.147-0.445-0.024-0.648c-0.073-0.086-0.474-0.5-0.519-0.426c0.033-0.113-0.073-0.387-0.137-0.494
	c-0.108-0.182-0.252-0.292-0.31-0.491c-0.022-0.079-0.022-0.319-0.069-0.375l-0.158-0.116c0.14-0.828,0.522-1.572,1.076-2.16
	l0.372-0.15c0.234-0.352,0.247-0.079,0.458-0.17c0.07,0,0.15-0.289,0.227-0.334c0.131-0.084,0.031-0.084,0.006-0.123
	c-0.051-0.083,1.096-0.501,1.115-0.426c0.016,0.063-0.567,0.367-0.504,0.357c-0.147,0.02-0.176,0.286-0.147,0.284
	c0.073-0.002,0.537-0.353,0.753-0.276c0.211,0.072,0.591-0.168,0.74-0.291c0.074-0.063,0.144-0.173,0.242-0.173
	c0.455,0,1.134,0.188,1.289,0.28c0.237,0.141-0.102,0.131-0.139,0.223l-0.125,0.207c-0.051,0.065-0.199,0.037-0.17-0.041
	c0.03-0.084,0.174-0.115-0.043-0.136c-0.222-0.021-0.283-0.17-0.506,0.017c-0.066,0.057-0.117,0.144-0.161,0.217l-0.272,0.197
	c-0.06,0.097,0.035,0.256,0.152,0.186c0.031-0.02,0.383,0.322,0.338,0.048c-0.029-0.183,0.098-0.308,0.1-0.444
	c0.002-0.091,0.141-0.033,0.104,0.016c-0.048,0.061-0.102,0.267,0.025,0.277c0.055,0.004,0.212-0.115,0.23-0.026
	c-0.027-0.087-0.178,0.176-0.168,0.172c-0.054,0.024-0.117-0.011-0.074,0.104c0.037,0.113-0.205,0.101-0.248,0.123
	c-0.019,0.01-0.209-0.057-0.205-0.014l-0.035-0.211c-0.055,0.084-0.029,0.256-0.147,0.256c-0.101,0-0.241,0.115-0.301,0.186
	c-0.043,0.047-0.306,0.152-0.333,0.149c0.148,0.017,0.143,0.125,0.13,0.22c-0.03,0.215-0.498,0.016-0.478,0.098
	c0.019,0.078-0.055,0.293-0.07,0.361c-0.016,0.063,0.201,0.104,0.188,0.135l0.32-0.125l0.065-0.147l0.175-0.089l0.074-0.129
	c0.025-0.01,0.322-0.057,0.344-0.046c0.075,0.034,0.213,0.177,0.266,0.241l0.113,0.095l-0.003,0.11
	c0.052,0.098,0.065-0.199,0.044-0.145c0-0.095,0.07,0.035,0.086,0.023l-0.329-0.326c-0.102-0.172,0.272,0.091,0.321,0.123
	c0.047,0.031,0.143,0.313,0.268,0.251l0.053-0.115l0.226-0.044c-0.178,0.13,0.14,0.301,0.091,0.277l0.178-0.01
	c0.027,0.01,0.332,0.006,0.283-0.041c0.075,0.037,0.04,0.373-0.023,0.424c-0.102,0.084-0.59,0.049-0.699-0.028
	c-0.182-0.132-0.148,0.139-0.236,0.176c-0.171,0.071-0.429-0.231-0.609-0.241c0.088,0.014,0.009-0.223,0.009-0.238
	c-0.07-0.086-0.511,0.01-0.626,0.025c-0.217,0.029-0.444,0.026-0.611,0.162l-0.238,0.325l-0.228,0.095
	c-0.117,0.111-0.251,0.276-0.317,0.422l0.021,0.287c-0.153,0.483,0.038,1.154,0.625,1.229c0.144,0.018,0.29,0.095,0.435,0.052
	c0.114-0.035,0.215-0.113,0.338-0.122c0.172-0.012,0.101,0.241,0.336,0.172c0.113-0.034,0.166,0.078,0.166,0.163
	c-0.039,0.178-0.123,0.276,0.041,0.401c0.109,0.084,0.2,0.207,0.221,0.354c0.012,0.083,0.089,0.225-0.006,0.273
	c-0.068,0.033-0.119,0.229-0.117,0.295c0.014,0.074,0.166,0.219,0.211,0.281l0.072,0.302l0.146,0.293
	c0.052,0.146,0.437-0.003,0.524-0.003c0.307,0.002,0.461-0.43,0.677-0.563l0.231-0.385c0.135-0.098,0.276-0.157,0.289-0.337
	c0.01-0.156-0.119-0.481-0.048-0.615c0.085-0.157,0.985-1.429,0.718-1.493l-0.381,0.18c-0.074,0.007-0.356-0.299-0.431-0.375
	c-0.14-0.138-0.199-0.383-0.312-0.551c-0.066-0.1-0.268-0.295-0.268-0.418c0.01,0.022,0.094,0.164,0.132,0.135l0.007-0.069
	c-0.002,0.037,0.235,0.31,0.287,0.339l0.229,0.34c0.218,0.167,0.158,0.645,0.478,0.354c0.214-0.192,0.634-0.561,0.521-0.896
	c-0.06-0.178-0.33-0.047-0.413,0.017c-0.09-0.047-0.415-0.402-0.287-0.449c0.063-0.022,0.202,0.164,0.252,0.191l0.238-0.002
	c0.068,0.143,0.519-0.147,0.625-0.105c0.07,0.027,0.125,0.085,0.15,0.156c0.074,0.23,0.148,0.666,0.148,1.098
	c0,2.299-1.864,4.162-4.162,4.162c-1.184,0-2.251-0.494-3.008-1.286c-0.09-0.095-0.158-0.317-0.01-0.409l0.151-0.039
	C15.25,19.328,15.021,18.923,15.111,18.857L15.111,18.857z M19.988,14.884c0.181,0.064,0.017,0.188-0.088,0.159
	c-0.057-0.016-0.352-0.105-0.361,0.01c0,0.069-0.28,0-0.236-0.072l0.076-0.231c0.08-0.104,0.157-0.048,0.159,0.013
	c0,0.163,0.165-0.154,0.256-0.164l-0.044,0.068C19.764,14.771,19.84,14.831,19.988,14.884z M10.059,17.934L7,20.141V7.073l4-2.886
	v8.942c0.507-0.916,1.189-1.719,2-2.37V4.187l4,2.886V9.07C17.328,9.028,17.661,9,18,9V7.071l4-2.479v5.486
	c0.754,0.437,1.428,0.992,2,1.642V1l-6.455,4L12,1L6.455,5L0,1v18l6.455,4l4.137-2.984C10.326,19.359,10.144,18.662,10.059,17.934z
	 M6,20.365l-4-2.479V4.592l4,2.479V20.365z"/>
</svg>
