<?xml version="1.0" encoding="utf-8"?>
<!-- Generator: Adobe Illustrator 12.0.0, SVG Export Plug-In . SVG Version: 6.00 Build 51448)  -->
<!DOCTYPE svg PUBLIC "-//W3C//DTD SVG 1.1//EN" "http://www.w3.org/Graphics/SVG/1.1/DTD/svg11.dtd" [
	<!ENTITY ns_svg "http://www.w3.org/2000/svg">
	<!ENTITY ns_xlink "http://www.w3.org/1999/xlink">
]>
<svg  version="1.1" id="Layer_1" xmlns="&ns_svg;" xmlns:xlink="&ns_xlink;" width="24" height="24" viewBox="0 0 24 24"
	 overflow="visible" enable-background="new 0 0 24 24" xml:space="preserve">
<path fill="#105997" d="M13.145,8.171c-0.035-0.066,0.342-0.102,0.408-0.102C13.627,8.078,13.357,8.521,13.145,8.171z M10.992,5.099
	L11.1,5.068c0.064,0.055-0.072,0.095-0.051,0.136c0.086,0.155,0.021,0.248,0.008,0.332c-0.014,0.085-0.104,0.048-0.149,0.093
	c-0.053,0.066,0.258,0.075,0.262,0.085c0.011,0.033-0.375,0.089-0.304,0.171c0.096,0.136,0.824-0.195,0.708-0.176
	c0.225-0.113,0.029-0.125-0.097-0.19c-0.043-0.215-0.079-0.547-0.213-0.68l0.088-0.102C11.146,4.438,10.992,5.099,10.992,5.099z
	 M24,12c0,6.627-5.373,12-12,12C5.372,24,0,18.627,0,12S5.372,0,12,0C18.627,0,24,5.373,24,12z M15.689,6.629
	c-0.006-0.146-0.189-0.284-0.381-0.031c-0.136,0.174-0.111,0.439-0.185,0.557c-0.104,0.175,0.567,0.339,0.567,0.174
	c0.024-0.277,0.731-0.063,0.869-0.025c0.248,0.069,0.644-0.226,0.211-0.381c-0.354-0.13-0.541-0.269-0.573-0.523
	c0,0,0.188-0.176,0.106-0.166C16.086,6.261,15.689,7.02,15.689,6.629z M21.986,12c0-1.035-0.178-2.08-0.357-2.632
	C21.57,9.194,21.439,9.056,21.27,8.99c-0.256-0.1-1.336,0.597-1.5,0.254c-0.106-0.229-0.324,0.146-0.571,0.008
	c-0.12-0.066-0.454-0.515-0.605-0.46c-0.309,0.111,0.474,0.964,0.688,1.076c0.201-0.152,0.852-0.465,0.992-0.038
	c0.268,0.804-0.737,1.685-1.252,2.149c-0.768,0.694-0.623-0.449-1.146-0.852c-0.275-0.211-0.271-0.66-0.55-0.815
	c-0.124-0.07-0.693-0.725-0.688-0.813L16.62,9.665c-0.095,0.071-0.294-0.268-0.315-0.321c0,0.295,0.48,0.765,0.639,1.001
	c0.271,0.405,0.416,0.995,0.748,1.326c0.179,0.178,0.858,0.914,1.035,0.897c0.193-0.017,0.803-0.458,0.912-0.433
	c0.644,0.152-1.517,3.205-1.722,3.583c-0.169,0.317,0.138,1.102,0.112,1.477c-0.028,0.433-0.369,0.572-0.692,0.809
	c-0.346,0.253-0.265,0.745-0.556,0.926c-0.518,0.317-0.889,1.353-1.623,1.348c-0.217-0.002-1.141,0.359-1.262,0.007
	c-0.094-0.257-0.22-0.45-0.353-0.703c-0.13-0.248-0.015-0.505-0.173-0.724c-0.109-0.152-0.475-0.498-0.508-0.678
	c-0.002-0.154,0.117-0.625,0.279-0.707c0.229-0.117,0.045-0.459,0.017-0.656c-0.048-0.354-0.267-0.646-0.53-0.852
	c-0.389-0.299-0.188-0.537-0.097-0.964c0-0.204-0.124-0.472-0.398-0.392c-0.564,0.164-0.393-0.44-0.804-0.414
	c-0.296,0.021-0.538,0.21-0.813,0.293c-0.346,0.104-0.7-0.082-1.042-0.125c-1.407-0.178-1.866-1.786-1.499-2.946
	c0.037-0.19-0.114-0.542-0.048-0.689c0.158-0.352,0.48-0.747,0.762-1.014c0.158-0.15,0.361-0.112,0.547-0.229
	c0.287-0.181,0.291-0.553,0.572-0.781c0.4-0.325,0.946-0.318,1.468-0.388c0.278-0.037,1.336-0.266,1.502-0.06
	c0,0.038,0.191,0.604-0.018,0.572c0.432,0.023,1.049,0.749,1.461,0.579c0.211-0.088,0.133-0.736,0.566-0.423
	c0.262,0.188,1.436,0.272,1.68,0.069c0.15-0.124,0.234-0.93,0.053-1.021c0.115,0.115-0.611,0.124-0.68,0.098
	c-0.119-0.044-0.232,0.114-0.425,0.025c0.116,0.055-0.646-0.354-0.218-0.667c-0.18,0.131-0.346-0.037-0.539,0.107
	c-0.133,0.108,0.063,0.18-0.128,0.274c-0.302,0.153-0.53-0.525-0.644-0.602c-0.117-0.076-1.015-0.706-0.771-0.295l0.789,0.785
	C13.868,7.782,13.7,7.471,13.7,7.698c0.053-0.135,0.021,0.579-0.104,0.347c-0.055-0.089,0.09-0.139,0.006-0.268
	c0-0.085-0.228-0.168-0.271-0.226c-0.125-0.155-0.457-0.497-0.637-0.579c-0.051-0.023-0.764,0.087-0.824,0.11
	c-0.07,0.098-0.13,0.201-0.179,0.311c-0.148,0.055-0.287,0.126-0.419,0.214L11.114,7.96c-0.068,0.061-0.765,0.291-0.769,0.3
	c0.029-0.075-0.487-0.171-0.453-0.321c0.038-0.165,0.213-0.68,0.168-0.868c-0.048-0.197,1.074,0.284,1.146-0.235
	c0.029-0.225,0.046-0.487-0.313-0.525c0.068,0.008,0.695-0.246,0.799-0.36c0.146-0.168,0.481-0.442,0.724-0.442
	c0.284,0,0.223-0.413,0.354-0.615C12.9,4.947,12.7,5.27,12.857,5.401c-0.01-0.103,0.444,0.057,0.488,0.033
	c0.104-0.054,0.684-0.022,0.594-0.294c-0.1-0.277,0.052-0.195,0.182-0.253c-0.021,0.009,0.34-0.619,0.402-0.413
	c-0.043-0.212-0.422,0.074-0.553,0.063c-0.306-0.024-0.177-0.52-0.062-0.665c0.089-0.115-0.243-0.256-0.247-0.036
	C13.656,4.165,13.35,4.463,13.421,4.9c0.108,0.659-0.735-0.159-0.81-0.114c-0.279,0.17-0.508-0.214-0.363-0.444
	c0.148-0.235,0.505-0.224,0.652-0.476c0.104-0.178,0.225-0.385,0.385-0.52c0.535-0.449,0.683-0.09,1.216-0.041
	c0.521,0.048,0.176,0.124,0.104,0.324c-0.069,0.19,0.285,0.258,0.408,0.099c0.07-0.092,0.229-0.323,0.299-0.494
	c0.088-0.222,0.9-0.197,0.334-0.536c-0.375-0.223-2.004-0.672-3.097-0.672c-0.236,0-0.401,0.263-0.581,0.412
	c-0.356,0.295-1.268,0.874-1.775,0.698c-0.519-0.179-1.63,0.66-1.808,0.666C8.321,3.806,8.39,3.168,8.744,3.121
	C8.591,3.144,9.991,2.414,9.953,2.262c-0.046-0.18-2.799,0.822-2.676,1.023c0.059,0.092,0.299,0.092-0.016,0.294
	C7.081,3.688,6.889,4.38,6.72,4.38C6.215,4.601,6.183,3.945,5.621,4.789l-0.894,0.36C3.399,6.56,2.48,8.347,2.147,10.332
	c-0.013,0.079,0.334,0.226,0.379,0.28c0.112,0.134,0.112,0.712,0.167,0.901c0.138,0.478,0.479,0.744,0.74,1.178
	c0.154,0.26,0.41,0.914,0.329,1.187C3.87,13.7,4.832,14.693,5.008,14.9c0.414,0.486,0.733,1.076,0.061,1.559
	c-0.217,0.156,0.33,1.129,0.048,1.368L4.756,17.92c-0.356,0.219-0.195,0.756,0.021,0.982c1.818,1.9,4.38,3.087,7.22,3.087
	C17.514,21.989,21.986,17.518,21.986,12z M10.479,5.643c0.125-0.055,0.293-0.053,0.311-0.22c0.015-0.148,0.044-0.046,0.08-0.1
	c0.035-0.053-0.067-0.138-0.11-0.146c-0.064-0.014-0.108,0.069-0.149,0.104L10.539,5.3l-0.068,0.087l0.008,0.048l-0.087,0.106
	C10.307,5.625,10.394,5.68,10.479,5.643z"/>
</svg>
