<?xml version="1.0" encoding="utf-8"?>
<!-- Generator: Adobe Illustrator 12.0.0, SVG Export Plug-In . SVG Version: 6.00 Build 51448)  -->
<!DOCTYPE svg PUBLIC "-//W3C//DTD SVG 1.1//EN" "http://www.w3.org/Graphics/SVG/1.1/DTD/svg11.dtd" [
	<!ENTITY ns_svg "http://www.w3.org/2000/svg">
	<!ENTITY ns_xlink "http://www.w3.org/1999/xlink">
]>
<svg  version="1.1" id="Layer_1" xmlns="&ns_svg;" xmlns:xlink="&ns_xlink;" width="24" height="24" viewBox="0 0 24 24"
	 overflow="visible" enable-background="new 0 0 24 24" xml:space="preserve">
<g id="XMLID_2_">
	<g>
		<path fill="#105997" d="M21.44,12.3c1.899,1.86,2.31,2.01,2.189,3.55C23.54,16.98,23.11,18.36,24,20.11L21.44,21
			c-0.061-0.31-0.141-0.64-0.23-0.93C20.7,18.35,20,18.31,20,16.78c0-1.8,0-2.811,0-4.03c0-0.41,0.28-0.63,0.57-0.63
			c0.239,0,0.489,0.16,0.54,0.51c0.18,1.42,0.409,2.82,0.54,3.15c0.04,0.1,0.119,0.14,0.189,0.14c0.12,0,0.24-0.12,0.2-0.28
			C21.79,14.57,21.55,13.12,21.44,12.3z"/>
		<path fill="#105997" d="M17,12.97v1.011c-1.12,0.31-2.18,0.68-3,1.02v-1.06C14.88,13.61,15.91,13.27,17,12.97z"/>
		<path fill="#105997" d="M17,10.94v1.01c-1.12,0.31-2.18,0.67-3,1.02v-1.06C14.88,11.58,15.91,11.24,17,10.94z"/>
		<path fill="#105997" d="M17,8.91v1.01c-1.12,0.31-2.18,0.67-3,1.02V9.87C14.88,9.55,15.91,9.21,17,8.91z"/>
		<path fill="#105997" d="M14,7.83c0.88-0.33,1.91-0.67,3-0.97v1.02c-1.12,0.31-2.18,0.67-3,1.02V7.83z"/>
		<path fill="#105997" d="M10,13.94V15c-0.82-0.34-1.88-0.71-3-1.02V12.97C8.09,13.27,9.12,13.61,10,13.94z"/>
		<path fill="#105997" d="M10,11.91v1.06c-0.82-0.35-1.88-0.71-3-1.02v-1.01C8.09,11.24,9.12,11.58,10,11.91z"/>
		<path fill="#105997" d="M10,9.87v1.07c-0.82-0.35-1.88-0.71-3-1.02V8.91C8.09,9.21,9.12,9.55,10,9.87z"/>
		<path fill="#105997" d="M10,7.83V8.9C9.18,8.55,8.12,8.19,7,7.88V6.86C8.09,7.16,9.12,7.5,10,7.83z"/>
		<path fill="#105997" d="M11,6.76l-0.06-0.03C9.63,5.91,7.6,5.37,5,5.12v7.63c0-0.45-0.17-0.87-0.47-1.18
			C4.15,11.19,3.58,11.01,3,11.18V3c3.44,0.1,6.8,0.66,9,2.03C14.2,3.66,17.56,3.1,21,3v8.18c-0.58-0.17-1.15,0.01-1.53,0.39
			C19.17,11.88,19,12.3,19,12.76V5.12c-2.6,0.25-4.63,0.79-5.94,1.61L13,6.76v9.88c1.65-0.63,3.65-1.05,6-1.25v1.391
			c0,0.229,0.02,0.43,0.05,0.62C16.8,17.59,14.67,18.02,13,18.78c-0.64,0.29-1.36,0.29-2,0c-1.67-0.761-3.8-1.19-6.05-1.38
			C4.98,17.21,5,17.01,5,16.78V15.39c2.35,0.2,4.35,0.62,6,1.25V6.76z"/>
		<path fill="#105997" d="M4,12.75c0,1.22,0,2.23,0,4.03c0,1.529-0.7,1.569-1.21,3.29C2.7,20.36,2.62,20.69,2.56,21L0,20.11
			c0.89-1.75,0.46-3.13,0.37-4.261c-0.12-1.54,0.29-1.689,2.19-3.55c-0.11,0.82-0.35,2.271-0.6,3.34c-0.04,0.16,0.08,0.28,0.2,0.28
			c0.07,0,0.15-0.04,0.19-0.14c0.13-0.33,0.36-1.73,0.55-3.15c0.04-0.35,0.29-0.51,0.53-0.51C3.71,12.12,4,12.33,4,12.75z"/>
	</g>
	<g>
	</g>
</g>
</svg>
