<?xml version="1.0" encoding="utf-8"?>
<!-- Generator: Adobe Illustrator 12.0.0, SVG Export Plug-In . SVG Version: 6.00 Build 51448)  -->
<!DOCTYPE svg PUBLIC "-//W3C//DTD SVG 1.1//EN" "http://www.w3.org/Graphics/SVG/1.1/DTD/svg11.dtd" [
	<!ENTITY ns_svg "http://www.w3.org/2000/svg">
	<!ENTITY ns_xlink "http://www.w3.org/1999/xlink">
]>
<svg  version="1.1" id="Layer_1" xmlns="&ns_svg;" xmlns:xlink="&ns_xlink;" width="24" height="24" viewBox="0 0 24 24"
	 overflow="visible" enable-background="new 0 0 24 24" xml:space="preserve">
<g id="XMLID_1_">
	<g>
		<path fill="#105997" d="M21.51,13.54c1.44,2.02,1.04,3.44,2.49,5.479L18.42,23c-3.02-2.25-5.62-2.97-6.46-3.25
			c-0.83-0.28-1.18-0.76-1.18-1.2c0-0.55,0.54-1.05,1.36-1.05c0.48,0,1.22,0.14,1.629,0.29l-3.89-5.46
			c-0.85-1.19,0.95-2.41,1.76-1.26l2.64,3.7c0.3,0.421,0.95-0.039,0.649-0.47l-0.649-0.91c0.399-0.1,0.83-0.27,1.18-0.27
			c0.24,0,0.44,0.07,0.59,0.28l0.53,0.75c0.31,0.43,0.95-0.03,0.65-0.46l-0.62-0.86c0.39-0.09,0.8-0.24,1.14-0.24
			c0.24,0,0.45,0.07,0.6,0.28l0.45,0.63c0.311,0.43,0.95-0.03,0.65-0.46l-0.51-0.71c0.27-0.04,0.51-0.08,0.729-0.08
			C20.29,12.25,20.79,12.53,21.51,13.54z"/>
		<path fill="#105997" d="M11.71,9.95c-0.66-0.5-1.53-0.48-2.21,0c-0.67,0.48-0.97,1.3-0.71,2.08c-1.05-0.75-1.06-2.32,0-3.08
			C9.85,8.19,11.33,8.71,11.71,9.95z"/>
		<path fill="#105997" d="M22,1c1.1,0,2,0.9,2,2v10.89c-0.61-1.33-1.64-2.82-3-3.37V3H3v14h6.24c-0.34,0.52-0.48,1.07-0.44,1.63
			c0,0.12,0.01,0.24,0.03,0.37H2c-1.1,0-2-0.9-2-2V3c0-1.1,0.9-2,2-2H22z"/>
	</g>
	<g>
	</g>
</g>
</svg>
